# xmcd CD database file
#
# Track frame offsets:
#	150
#	39342
#	69857
#	117695
#	158487
#	190240
#	222432
#
# Disc length: 3756 seconds
#
# Revision: 0
# Processed by: cddbd v1.5.1PL2 Copyright (c) Steve Scherf et al.
# Submitted via: CDex 1.70beta2
#
DISCID=5c0eaa07
DTITLE=Abe Rabade Trio - Playing On Light
DYEAR=2006
DGENRE=Jazz
TTITLE0=Eses
TTITLE1=Zero
TTITLE2=Inner Battle
TTITLE3=Nomadas
TTITLE4=Avalancha
TTITLE5=Protection
TTITLE6=Bright Flow
EXTD=YEAR: 2006
EXTT0=
EXTT1=
EXTT2=
EXTT3=
EXTT4=
EXTT5=
EXTT6=
PLAYORDER=
